<?xml version="1.0" standalone="no"?>
<!DOCTYPE svg PUBLIC "-//W3C//DTD SVG 20010904//EN"
 "http://www.w3.org/TR/2001/REC-SVG-20010904/DTD/svg10.dtd">
<svg version="1.0" xmlns="http://www.w3.org/2000/svg"
 width="1280.000000pt" height="1280.000000pt" viewBox="0 0 1280.000000 1280.000000"
 preserveAspectRatio="xMidYMid meet">
<metadata>
Created by potrace 1.15, written by Peter Selinger 2001-2017
</metadata>
<g transform="translate(0.000000,1280.000000) scale(0.100000,-0.100000)"
fill="#000000" stroke="none">
<path d="M6312 12102 c-46 -290 -86 -535 -89 -544 -4 -15 3 -18 46 -18 l51 0
0 -240 c0 -153 4 -240 10 -240 7 0 10 -1331 10 -3972 l0 -3972 -100 -171 c-55
-95 -116 -210 -135 -256 -41 -100 -69 -219 -62 -258 3 -15 2 -57 -3 -92 -4
-35 -11 -116 -15 -179 -7 -124 -22 -241 -36 -277 -5 -13 -5 -23 -1 -23 10 0
153 147 177 180 l17 25 -7 -25 c-19 -65 -61 -153 -110 -231 -58 -91 -85 -154
-85 -197 l0 -26 33 31 c34 32 95 68 104 60 2 -3 -4 -34 -15 -69 -11 -35 -23
-91 -27 -123 -13 -116 -27 -181 -60 -285 -45 -141 -60 -226 -49 -275 l9 -38
27 40 c23 35 186 158 196 149 1 -2 -16 -55 -38 -117 -48 -133 -75 -253 -90
-398 -5 -57 -10 -108 -10 -114 0 -6 14 11 31 39 17 27 63 83 103 124 39 41 88
95 109 119 l37 45 0 -92 0 -92 60 0 60 0 0 92 0 92 37 -45 c21 -24 70 -78 109
-119 40 -41 86 -97 103 -124 17 -28 31 -45 31 -39 0 6 -5 57 -10 114 -15 145
-42 265 -90 398 -22 62 -39 115 -38 117 10 9 173 -114 196 -149 l27 -40 9 38
c11 49 -4 134 -49 275 -33 104 -47 169 -60 285 -4 32 -16 88 -27 123 -11 35
-17 66 -15 69 9 8 70 -28 104 -60 l33 -31 0 26 c0 43 -28 107 -85 199 -51 80
-91 164 -110 229 l-7 25 17 -25 c24 -33 167 -180 177 -180 4 0 4 10 -1 23 -14
36 -29 153 -36 277 -4 63 -11 144 -15 179 -5 35 -6 77 -3 92 7 39 -21 158 -62
258 -19 46 -80 161 -135 256 l-100 172 0 3972 c0 2641 3 3971 10 3971 6 0 10
87 10 240 l0 240 51 0 c43 0 50 2 45 18 -3 9 -42 251 -87 537 -45 286 -85 523
-88 527 -3 4 -44 -230 -89 -520z"/>
</g>
</svg>
